<?xml version="1.0" encoding="utf-8"?>
<!-- Generator: Adobe Illustrator 16.0.0, SVG Export Plug-In . SVG Version: 6.00 Build 0)  -->
<!DOCTYPE svg PUBLIC "-//W3C//DTD SVG 1.1//EN" "http://www.w3.org/Graphics/SVG/1.1/DTD/svg11.dtd">
<svg version="1.1" id="Calque_1" xmlns="http://www.w3.org/2000/svg" xmlns:xlink="http://www.w3.org/1999/xlink" x="0px" y="0px"
	 width="566.929px" height="579.928px" viewBox="0 0 566.929 579.928" enable-background="new 0 0 566.929 579.928"
	 xml:space="preserve">
<g>
	<path fill="#232323" d="M248.165,382.25c2.735-3.175,5.193-6.578,5.734-10.865c0.314-2.491,0.188-5.235-2.448-6.534
		c-2.762-1.361-4.119,1.03-5.736,2.696c-6.782,6.989-13.821,13.687-22.022,19.276c-0.328-0.776-0.547-1.055-0.549-1.335
		c-0.356-49.802-0.685-99.601-1.083-149.401c-0.018-2.258,0.707-3.648,2.567-4.918c6.325-4.32,12.495-8.866,18.037-14.185
		c4.223-4.052,8.321-8.296,9.99-14.086c0.842-2.92,0.892-6.323-2.239-8.01c-2.926-1.575-4.33,1.345-6.034,3.07
		c-6.719,6.804-13.622,13.395-22.271,19.285c0-9.707-0.015-18.487,0.005-27.269c0.015-5.998,0.132-12.007-1.206-17.902
		c-0.736-3.249-1.602-6.479-4.312-8.793c-1.627-1.39-3.592-2.106-5.551-1.527c-2.202,0.651-1.167,2.855-1.204,4.328
		c-0.462,18.474-0.875,36.949-1.146,55.426c-0.046,3.157-1.1,4.93-3.882,6.68c-8.584,5.397-17.207,10.846-24.341,18.19
		c-3.374,3.473-6.5,7.201-6.643,12.448c-0.069,2.556-0.036,5.412,2.62,6.495c2.587,1.055,4.083-1.336,5.685-3.041
		c7.531-8.011,16.312-14.416,26.699-21.013c0,4.898-0.013,8.673,0.003,12.448c0.097,24.489-0.603,49.017,0.542,73.456
		c1.015,21.666,0.302,43.264,0.296,64.895c-0.001,2.914-1.19,4.398-3.537,5.892c-8.843,5.622-17.782,11.179-25.086,18.841
		c-3.476,3.646-6.496,7.605-6.226,13.115c0.112,2.277,0.482,4.632,2.696,5.471c2.071,0.784,3.603-0.887,5.016-2.444
		c7.552-8.324,16.595-14.794,26.717-21.4c0.132,1.708,0.24,2.499,0.248,3.291c0.163,16.488,0.14,32.979,0.521,49.462
		c0.338,14.646-0.642,29.323,0.946,43.939c0.574,5.286,1.037,10.644,4.233,15.18c1.819,2.583,4.634,3.618,7.493,2.757
		c2.528-0.764,1.221-3.454,1.211-5.208c-0.202-37.473-0.431-74.947-0.906-112.418c-0.053-4.198,1.28-6.609,4.66-8.886
		C235.122,394.632,242.247,389.122,248.165,382.25z"/>
	<path fill="#232323" d="M114.842,244.363c2.586-1.983,0.22-4.565-0.806-6.713c-6.155-12.894-12.861-25.529-17.945-38.922
		c-0.937-2.467-0.983-4.604-0.176-7.171c10.973-34.856,18.983-70.311,20.419-106.973c0.463-11.815,0.323-23.682-4.956-34.74
		c-2.259-4.733-5.581-8.193-10.919-9.411c-7.861-1.794-16.173,1.917-21.821,9.94c-5.604,7.96-8.221,17.107-9.492,26.53
		c-5.224,38.729-0.619,76.677,9.837,114.071c0.813,2.909,0.712,5.25-0.467,8.051c-4.98,11.82-12.182,22.524-17.028,34.388
		c-0.606,1.484-2.379,3.192-0.471,4.943c1.714,1.573,3.856,2.019,6.068,1.414c3.368-0.921,5.734-3.244,7.778-5.959
		c4.937-6.558,8.19-14.038,12.004-22.233c4.005,8.168,7.537,15.616,11.3,22.945c1.821,3.548,3.951,7.032,7.342,9.329
		C108.432,245.831,112.013,246.533,114.842,244.363z M83.371,147.024c-2.837-23.18-3.769-46.374,0.612-69.502
		c1.302-6.875,3.007-13.634,6.781-19.633c1.215-1.931,2.675-4.154,5.394-3.8c2.772,0.361,3.35,2.944,4.055,5.135
		c3.012,9.347,2.973,19.029,2.559,28.642c-1.22,28.324-6.355,56.018-14.491,84.7C85.564,163.36,84.37,155.188,83.371,147.024z"/>
	<path fill="#232323" d="M326.068,301.451c-3.289,2.625-5.852,5.907-7.832,9.61c-3.889,7.266-6.146,15.103-7.203,23.196
		c-5.076,38.886-0.418,76.957,10.133,114.464c0.693,2.463,0.662,4.42-0.434,6.619c-5.777,11.589-11.557,23.179-17.156,34.854
		c-0.729,1.514-2.734,3.422-0.406,5.292c1.961,1.574,4.254,1.924,6.594,1.054c3.768-1.398,6.166-4.377,8.389-7.544
		c4.301-6.134,7.133-13.055,10.9-20.749c4.154,9.284,7.641,17.715,12.402,25.501c1.74,2.845,3.555,5.738,6.531,7.406
		c2.85,1.597,6.23,2.303,8.865,0.083c2.574-2.168,0.092-4.597-0.914-6.714c-6.115-12.896-12.879-25.491-17.861-38.909
		c-0.828-2.229-1.098-4.225-0.32-6.688c10.965-34.821,19.049-70.22,20.498-106.864c0.453-11.49,0.486-23.035-4.283-33.836
		C348.658,296.194,336.3,293.28,326.068,301.451z M344.46,349.782c-1.506,26.636-6.586,52.656-14.189,79.755
		c-2.775-9.151-3.902-17.338-4.922-25.495c-2.908-23.346-3.795-46.715,0.662-69.996c1.314-6.855,3.018-13.637,6.967-19.561
		c1.195-1.788,2.604-3.728,5.102-3.44c2.57,0.293,3.291,2.62,3.938,4.642C345.597,326.842,345.105,338.331,344.46,349.782z"/>
	<path fill="#232323" d="M303.839,205.52c8.033-5.37,15.711-11.288,21.711-19.005c2.561-3.292,4.883-6.824,4.352-11.343
		c-0.221-1.858-0.775-3.729-2.715-4.428c-1.988-0.716-3.342,0.439-4.688,1.93c-5.484,6.063-11.531,11.544-17.961,16.589
		c-1.582,1.242-2.859,3.183-5.438,3.14c0-8.418,0.006-16.581,0-24.742c-0.004-6.493,0.229-13.001-1.158-19.411
		c-0.748-3.448-1.709-6.795-4.613-9.153c-1.656-1.345-3.66-1.992-5.588-1.212c-1.74,0.703-0.875,2.653-0.908,4.029
		c-0.449,18.643-0.892,37.286-1.162,55.932c-0.045,3.043-1.221,4.65-3.738,6.257c-8.972,5.727-18.079,11.35-25.393,19.256
		c-3.19,3.449-5.919,7.224-5.714,12.326c0.089,2.232,0.277,4.645,2.459,5.603c2.339,1.025,3.906-0.849,5.411-2.5
		c7.556-8.294,16.562-14.757,27.271-21.621c0,18.27-0.219,35.072,0.063,51.867c0.254,15.147-0.641,30.324,0.948,45.443
		c0.505,4.804,1.108,9.605,3.496,13.918c1.716,3.1,4.63,4.73,7.948,3.816c3.01-0.829,1.473-3.956,1.463-5.96
		c-0.18-37.145-0.414-74.289-0.893-111.431C298.937,210.458,300.255,207.915,303.839,205.52z"/>
	<path fill="#232323" d="M156,299.001c0.027-7.249-0.858-12.12-2.794-16.786c-5.399-13.009-16.383-16.016-27.627-7.464
		c-2.17,1.65-3.644,3.082-5.378-0.575c-1.589-3.353-4.966-4.811-8.422-3.848c-3.81,1.062-1.708,4.585-1.514,6.832
		c2.792,32.196,2.737,64.497,3.678,96.757c0.461,15.827-0.802,31.578-2.958,47.271c-0.64,4.658,2.046,8.531,5.537,8.626
		c4.531,0.119,6.578-2.99,7.172-6.893c1.452-9.528,2.68-19.075,2.59-28.772c-0.186-19.965-0.091-39.933-0.207-59.897
		c-0.013-2.328,0.077-3.465,3.066-3.425c6.263,0.083,11.604-2.688,16.055-6.979C152.838,316.479,155.666,307.123,156,299.001z
		 M137.801,313.403c-1.286,1.769-3.067,2.984-5.12,3.812c-5.18,2.086-6.897,1.066-7.17-4.493c-0.138-2.807-0.024-5.625-0.024-8.156
		c-1.74-7.92,0.143-14.375,6.405-19.313c4.861-3.833,8.299-3.095,10.132,2.75C144.871,297.083,143.432,305.653,137.801,313.403z"/>
	<path fill="#232323" d="M187.946,488.057c0.12-10.797-5.13-14.972-15.889-12.968c-19.453,3.622-35.813,24.025-35.224,43.929
		c0.43,14.539,12.171,21.603,25.34,15.324c4.565-2.177,7.916-5.83,11.776-9.483c1.304,3.929,0.986,8.021,3.69,11.039
		c1.894,2.115,4.282,3.495,7.04,2.869c3.067-0.695,2.364-3.588,2.412-5.819C187.412,517.984,187.779,503.021,187.946,488.057z
		 M173.869,490.659c-1.768,11.181-5.46,21.473-13.541,29.771c-0.575,0.59-1.221,1.115-1.868,1.629
		c-1.901,1.513-4.1,2.555-6.44,1.644c-2.648-1.03-2.161-3.806-2.581-5.73c-0.152-12.397,9.732-26.156,21.004-29.625
		C172.694,487.655,174.4,487.296,173.869,490.659z"/>
	<path fill="#232323" d="M156.922,214.06c4.774-2.409,8.663-5.75,9.135-11.572c0.346-4.268-1.607-5.601-5.426-3.685
		c-3.721,1.868-7.419,3.779-11.45,4.854c-9.879,2.634-18.215-3.939-17.884-14.101c2.769,0.33,5.524,0.826,8.296,0.955
		c6.417,0.298,12.616-0.608,18.116-4.245c9.269-6.13,10.316-18.882,2.189-26.152c-10.66-9.536-30.374-6.54-37.428,5.854
		c-5.919,10.402-6.886,21.536-3.069,32.775C124.997,215.221,141.522,221.833,156.922,214.06z M148.896,167.893
		c1.529,0.705,3.063,1.547,3.237,3.415c0.192,2.059-1.104,3.436-2.778,4.325c-5.466,2.903-11.135,2.011-16.866,0.921
		C135.28,168.05,141.846,164.642,148.896,167.893z"/>
	<path fill="#232323" d="M443.88,440.515c-1.834-1.295-3.459-0.331-5.084,0.598c-3.33,1.904-6.826,3.469-10.521,4.483
		c-8.244,2.268-15.576-1.892-17.908-9.966c-0.852-2.952-1.021-4.586,3.162-3.777c8.023,1.551,15.955,1.006,23.068-3.596
		c8.645-5.588,10.418-17.611,3.775-24.716c-10.195-10.904-30.916-8.869-38.592,3.916c-6.279,10.463-7.213,21.715-3.457,33.158
		c3.895,11.872,12.982,18.436,24.482,18.479c5.65,0.096,10.875-1.428,15.564-4.507c3.258-2.14,5.949-4.923,6.52-9.02
		C445.13,443.854,445.759,441.844,443.88,440.515z M417.769,410.019c3.953-1.989,7.986-1.554,11.748,0.848
		c1.436,0.915,2.08,2.277,1.393,3.822c-1.754,3.939-5.566,4.213-9.141,4.797c-0.805,0.133-1.648,0.021-2.475,0.015
		c-2.689-0.278-7.23,0.479-7.506-1.687C411.376,414.556,414.593,411.618,417.769,410.019z"/>
	<path fill="#232323" d="M282.545,490.81c-3.586,1.752-7.124,3.604-10.981,4.701c-8.295,2.362-15.499-1.538-18.093-9.636
		c-1.039-3.24-1.065-4.833,3.283-3.995c7.861,1.516,15.616,0.927,22.631-3.454c10.12-6.321,10.719-20.188,1.259-27.38
		c-8.774-6.67-29.339-7.614-37.005,8.269c-4.784,9.909-5.718,20.098-2.556,30.533c3.711,12.249,13.059,19.269,24.938,19.229
		c5.646,0.047,10.88-1.459,15.531-4.612c3.533-2.395,6.296-5.474,6.5-10.095C288.24,490.137,286.425,488.913,282.545,490.81z
		 M270.877,459.875c1.54,0.699,3.066,1.517,3.236,3.402c0.186,2.064-1.084,3.443-2.773,4.328
		c-5.479,2.865-11.154,1.999-16.893,0.911C257.31,460.041,263.825,456.674,270.877,459.875z"/>
	<path fill="#232323" d="M490.039,386.825c-5.721-1.919-10.889-0.01-15.646,2.822c-3.209,1.912-5.053,2.746-6.637-1.769
		c-1.244-3.551-4.668-3.631-8.059-2.983c-3.813,0.729-2.699,3.742-2.725,6.021c-0.084,7.985-0.031,16.084-0.031,24.084
		c0.059,0,0.113,0,0.174,0c0,3-0.047,6.201,0.01,9.363c0.096,5.485,0.15,10.915,0.424,16.394c0.189,3.777,3.953,7.107,7.566,7.189
		c4.955,0.11,4.27-3.555,4.441-6.596c0.48-8.467,0.838-16.949,1.402-25.412c0.396-5.926,2.768-10.976,7.83-14.328
		c4.295-2.844,9.313-3.297,14.307-3.668c5.365-0.398,6.193-2.043,3.232-6.438C494.792,389.226,492.638,387.697,490.039,386.825z"/>
	<path fill="#232323" d="M382.953,448c-0.061,0-0.121,0-0.184,0c0-5,0.088-8.801-0.023-13.117
		c-0.113-4.475-0.234-9.045-0.689-13.494c-0.57-5.54-4.137-9.194-8.594-9.415c-2.422-0.121-3.586,0.483-3.559,3.258
		c0.166,17.271,0.135,34.535,0.281,51.81c0.027,3.308,1.537,6.05,4.395,7.936c2.09,1.381,4.373,1.658,6.652,0.815
		c2.563-0.95,1.672-3.177,1.689-5.033C382.996,463.119,382.953,455,382.953,448z"/>
	<path fill="#232323" d="M253.211,343.354c4.516,2.509,7.759,0.599,7.747-4.459c-0.029-11.627-0.046-23.254-0.205-34.877
		c-0.07-5.139-0.24-10.297-0.79-15.399c-0.529-4.917-4.11-8.332-8.192-8.663c-2.608-0.211-3.93,0.507-3.864,3.559
		c0.181,8.468,0.063,16.486,0.063,25.486c0.06,0,0.119,0,0.179,0c0,8,0.037,16.537-0.016,24.84
		C248.107,337.988,249.526,341.308,253.211,343.354z"/>
	<path fill="#232323" d="M161.948,239.861c-7.176-0.695-12.309,5.377-12.404,14.673c-0.088,8.542,4.543,15.55,11.238,17.548
		c2.689,0.803,3.929,0.048,4.769-2.445c1.054-3.13,1.807-6.515-0.615-8.966c-5.007-5.063-3.591-9.602,0.021-14.529
		C167.554,242.599,166.332,240.285,161.948,239.861z"/>
	<path fill="#232323" d="M376.117,407.948c4.174-0.006,6.834-2.418,6.828-6.193c-0.006-3.566-3.25-6.199-7.572-6.146
		c-4.291,0.055-6.908,2.423-6.836,6.185C368.603,405.397,371.751,407.953,376.117,407.948z"/>
	<path fill="#232323" d="M253.221,263.648c-4.24,0.091-6.856,2.562-6.682,6.31c0.164,3.532,3.478,6.104,7.743,6.006
		c4.138-0.095,6.79-2.614,6.679-6.345C260.855,266.071,257.594,263.555,253.221,263.648z"/>
</g>
</svg>
