<?xml version="1.0" encoding="utf-8"?>
<!-- Generator: Adobe Illustrator 16.0.0, SVG Export Plug-In . SVG Version: 6.00 Build 0)  -->
<!DOCTYPE svg PUBLIC "-//W3C//DTD SVG 1.1//EN" "http://www.w3.org/Graphics/SVG/1.1/DTD/svg11.dtd">
<svg version="1.1" id="Capa_1" xmlns="http://www.w3.org/2000/svg" xmlns:xlink="http://www.w3.org/1999/xlink" x="0px" y="0px"
	 width="612px" height="792px" viewBox="0 0 612 792" enable-background="new 0 0 612 792" xml:space="preserve">
<g>
	<g>
		<path fill="#FFFFFF" d="M254.279,443.321c-4.668-4.667-12.234-4.667-16.903,0c-12.474,12.477-32.769,12.474-45.243,0
			c-4.669-4.667-12.235-4.667-16.905,0c-4.668,4.667-4.668,12.236,0,16.905c10.897,10.896,25.212,16.346,39.526,16.346
			c14.313,0,28.627-5.449,39.525-16.346C258.948,455.559,258.948,447.99,254.279,443.321z"/>
	</g>
</g>
<g>
	<g>
		<path fill="#FFFFFF" d="M436.771,443.321c-4.668-4.667-12.234-4.667-16.903,0c-12.473,12.473-32.768,12.476-45.243,0
			c-4.669-4.667-12.235-4.667-16.905,0c-4.668,4.667-4.668,12.236,0,16.905c10.897,10.896,25.213,16.346,39.525,16.346
			c14.314,0,28.629-5.449,39.526-16.346C441.439,455.559,441.439,447.99,436.771,443.321z"/>
	</g>
</g>
<g>
	<g>
		<path fill="#FFFFFF" d="M560.612,432.655c-0.048-26.696-20.457-48.723-46.477-51.357V362.53
			c0-69.822-34.585-131.716-87.522-169.457C417.471,133.939,366.616,90,306.153,90c-60.462,0-111.318,43.939-120.463,103.074
			c-52.937,37.741-87.521,99.635-87.521,169.457v18.744c-26.163,2.493-46.732,24.582-46.781,51.38l-0.055,30.277
			c-0.025,13.831,5.343,26.84,15.115,36.63c9.773,9.788,22.772,15.181,36.603,15.181h5.791
			c26.256,90.719,98.892,163.114,194.281,186.9c0.95,0.236,1.921,0.355,2.893,0.355c0.968,0,1.937-0.119,2.882-0.354l0.199-0.05
			c21.871-5.447,42.979-13.593,62.737-24.216c5.814-3.124,7.994-10.373,4.867-16.188c-3.124-5.814-10.369-7.993-16.188-4.868
			c-17.195,9.244-35.517,16.433-54.493,21.386c-108.455-28.421-183.946-126.028-183.946-238.404v-15.259l5.159-1.168
			c68.051-15.401,133.59-43.209,192.212-81.288c40.295,52.506,102.768,83.528,169.409,83.528h1.375v14.118
			c0,40.556-10.115,80.834-29.252,116.484c-3.122,5.816-0.938,13.063,4.878,16.185c1.799,0.967,3.734,1.424,5.644,1.424
			c4.261,0,8.386-2.284,10.541-6.302c8.928-16.632,16.046-34.187,21.303-52.284h5.607c13.831,0,26.83-5.393,36.603-15.181
			c9.771-9.788,15.139-22.798,15.115-36.631L560.612,432.655z M103.051,490.836L103.051,490.836c-7.438,0-14.428-2.9-19.683-8.163
			c-5.255-5.264-8.143-12.26-8.128-19.697l0.055-30.276c0.025-13.623,9.912-24.976,22.875-27.313v33.918
			c0,17.563,1.683,34.798,4.909,51.531H103.051L103.051,490.836z M306.153,113.906c41.056,0,76.587,25.202,91.069,61.668
			c-27.521-13.459-58.426-21.027-91.069-21.027c-32.644,0-63.55,7.568-91.07,21.029
			C229.566,139.108,265.097,113.906,306.153,113.906z M490.23,395.999v5.212h-1.375c-58.715,0-113.793-27.106-149.602-73.066
			c8.274-5.868,16.401-11.938,24.351-18.222c5.178-4.095,6.057-11.612,1.964-16.791c-4.096-5.177-11.612-6.056-16.791-1.964
			c-66.111,52.272-144.5,89.743-226.701,108.365v-3.534V362.53c-0.001-101.501,82.576-184.078,184.077-184.078
			c101.5,0,184.077,82.577,184.077,184.078V395.999L490.23,395.999z M528.635,482.672c-5.214,5.222-12.135,8.113-19.508,8.158
			c3.302-16.967,5.01-34.257,5.01-51.596v-33.795c12.813,2.459,22.546,13.742,22.571,27.259l0.055,30.274
			C536.777,470.413,533.891,477.407,528.635,482.672z"/>
	</g>
</g>
<g>
	<g>
		<path fill="#FFFFFF" d="M397.334,265.186c-4.399-4.922-11.956-5.349-16.878-0.949l-0.165,0.147
			c-4.923,4.4-5.348,11.956-0.949,16.878c2.362,2.643,5.632,3.989,8.918,3.989c2.834,0,5.681-1.003,7.96-3.04l0.165-0.147
			C401.307,277.663,401.732,270.108,397.334,265.186z"/>
	</g>
</g>
<g>
	<g>
		<path fill="#FFFFFF" d="M520.521,650.836l-66.035-66.033l-25.395-66.392c-3.922-10.249-14.596-16.262-25.401-14.287
			c-45.065,8.229-80.872,44.036-89.094,89.064l-0.052,0.281c-1.917,10.498,3.848,21.085,13.709,25.17l65.161,26.993l52.866,52.866
			c2.335,2.333,5.394,3.501,8.452,3.501s6.117-1.168,8.452-3.501c4.668-4.668,4.668-12.236,0-16.905L417.092,635.5l27.142-27.142
			l59.383,59.383c4.669,4.667,12.235,4.667,16.905,0C525.189,663.073,525.189,655.505,520.521,650.836z M397.383,621.399
			l-59.16-24.508c6.614-34.749,34.155-62.363,68.868-69.084l23.208,60.675L397.383,621.399z"/>
	</g>
</g>
<g>
	<g>
		<path fill="#FFFFFF" d="M551.278,681.594c-2.224-2.225-5.308-3.502-8.451-3.502s-6.228,1.277-8.462,3.502
			c-2.224,2.224-3.491,5.308-3.491,8.451s1.268,6.228,3.491,8.449c2.234,2.224,5.318,3.504,8.462,3.504s6.228-1.279,8.451-3.504
			c2.222-2.222,3.502-5.306,3.502-8.449S553.502,683.817,551.278,681.594z"/>
	</g>
</g>
</svg>
