<?xml version="1.0" encoding="utf-8"?>
<!-- Generator: Adobe Illustrator 16.0.0, SVG Export Plug-In . SVG Version: 6.00 Build 0)  -->
<!DOCTYPE svg PUBLIC "-//W3C//DTD SVG 1.1//EN" "http://www.w3.org/Graphics/SVG/1.1/DTD/svg11.dtd">
<svg version="1.1" id="Capa_1" xmlns="http://www.w3.org/2000/svg" xmlns:xlink="http://www.w3.org/1999/xlink" x="0px" y="0px"
	 width="612px" height="792px" viewBox="0 0 612 792" enable-background="new 0 0 612 792" xml:space="preserve">
<g>
	<path fill="#FFFFFF" d="M526.978,555.148c-16.263-28.36-41.499-47.568-68.138-54.799c-21.051-5.748-42.882-3.985-61.769,6.69
		l-56.181-98.222c34.77-69.36,112.821-224.863,126.822-249.378C485.858,127.734,453.392,90,453.392,90L305.979,347.811L158.608,90
		c0,0-32.446,37.734-14.32,69.42c14.02,24.535,92.092,180.019,126.822,249.379l-56.161,98.221
		c-18.887-10.675-40.759-12.438-61.769-6.689c-26.678,7.23-51.895,26.438-68.158,54.799
		C55.82,606.143,66.976,667.33,109.838,691.865c19.007,10.916,41.019,12.658,62.229,6.91c26.618-7.271,51.895-26.479,68.138-54.779
		c7.11-12.497,11.817-25.576,14.22-38.575v0.021c0.02-0.101,0.02-0.2,0.12-0.301c0.14-1.081,0.341-2.163,0.441-3.345
		c12.057-80.896,34.85-122.216,50.973-142.284c16.163,20.068,38.976,61.368,51.014,142.284c0.12,1.182,0.32,2.264,0.42,3.345
		c0.08,0.101,0.08,0.2,0.12,0.301v-0.021c2.424,12.979,7.11,26.078,14.201,38.575c16.263,28.301,41.539,47.509,68.178,54.779
		c21.21,5.748,43.222,4.006,62.27-6.91C545.044,667.33,556.16,606.162,526.978,555.148z M198.505,620.122
		c-9.213,16.083-23.814,28.201-39.016,32.347c-6.77,1.843-16.704,2.964-25.817-2.264c-19.428-11.115-22.613-43.782-6.93-71.222
		c9.374-16.264,23.574-28.101,39.056-32.327c6.709-1.822,16.644-2.924,25.797,2.264
		C211.043,560.076,214.208,592.663,198.505,620.122z M478.308,650.205c-9.113,5.248-19.007,4.106-25.777,2.264
		c-15.222-4.146-29.803-16.264-39.036-32.347c-15.682-27.459-12.518-60.046,6.931-71.202c9.153-5.208,19.087-4.086,25.816-2.264
		c15.442,4.227,29.684,16.063,38.996,32.327C500.92,606.423,497.756,639.09,478.308,650.205z"/>
</g>
</svg>
